# xmcd
#
# Track frame offsets:
#	150
#	13444
#	30014
#	47553
#	69371
#	89657
#	106540
#	124344
#
# Disc length: 1842 seconds
#
# Revision: 1
# Processed by: cddbd v1.4PL0 Copyright (c) Steve Scherf et al.
# Submitted via: audiograbber 1.82.01
#
DISCID=5d073008
DTITLE=Free Baby - Baba Fein
DYEAR=1900
DGENRE=Other
TTITLE0=Baba Fein
TTITLE1=Ask Bararah
TTITLE2=Hob Baba
TTITLE3=Om El Belad
TTITLE4=Feha Eh
TTITLE5=Mama
TTITLE6=Ana Katkout
TTITLE7=El Walad Haredy
EXTD=
EXTT0=
EXTT1=
EXTT2=
EXTT3=
EXTT4=
EXTT5=
EXTT6=
EXTT7=
PLAYORDER=
